<?xml version="1.0" encoding="UTF-8"?>
<svg version="1.1" xmlns="http://www.w3.org/2000/svg" width="1024" height="1080">
<path d="M0 0 C2.2785669 1.71787242 4.44980562 3.51456439 6.61328125 5.375 C7.4021875 6.03113281 8.19109375 6.68726562 9.00390625 7.36328125 C20.28005337 17.06147697 29.15722944 28.56400221 36.61328125 41.375 C37.01401855 42.06271484 37.41475586 42.75042969 37.82763672 43.45898438 C59.86497397 81.90600618 66.82392455 125.95439441 71.61328125 169.375 C71.81638419 171.19661704 72.01950517 173.01823207 72.22265625 174.83984375 C72.41601562 176.58974609 72.41601562 176.58974609 72.61328125 178.375 C76.27961976 179.59711284 77.83443389 179.02637545 81.5546875 178.08203125 C83.37033203 177.63380005 83.37033203 177.63380005 85.22265625 177.17651367 C85.86654297 177.01492767 86.51042969 176.85334167 87.17382812 176.68685913 C101.87186133 173.02064088 116.57641189 170.27692592 131.61328125 168.375 C132.50789063 168.25785645 133.4025 168.14071289 134.32421875 168.02001953 C174.7552255 162.91302487 216.71515173 166.76959652 255.83056641 177.85107422 C259.26963254 178.8203863 262.00501727 179.375 265.61328125 179.375 C266.9394425 176.72267749 267.06322647 174.33342884 267.41015625 171.3828125 C267.56137939 170.13459717 267.71260254 168.88638184 267.8684082 167.6003418 C267.94854156 166.93287933 268.02867493 166.26541687 268.11123657 165.57772827 C275.04137715 108.4491702 288.94769153 42.9792889 335.328125 4.02734375 C353.91596961 -9.41309774 373.46285663 -13.78369742 396.11328125 -11.23046875 C413.84126336 -7.49699426 426.5176764 3.91242436 436.20068359 18.6965332 C452.3667174 44.4110968 451.73695602 78.62747955 445.30664062 107.45507812 C443.07206051 116.865493 440.4660592 126.13468367 437.61328125 135.375 C437.22946289 136.65721436 437.22946289 136.65721436 436.83789062 137.96533203 C427.18186359 169.85697279 405.98587601 215.80490302 379.89038086 237.82910156 C378.41870979 239.27878496 378.41870979 239.27878496 378.60205078 241.22705078 C380.05989264 244.32364485 382.34775139 246.4177891 384.79296875 248.7421875 C385.87296305 249.79605969 386.95279083 250.85010256 388.0324707 251.90429688 C388.59761383 252.45077881 389.16275696 252.99726074 389.74502563 253.56030273 C398.58254621 262.12630661 407.30891841 270.59560087 414.42089844 280.69091797 C415.74993998 282.56801226 417.12169328 284.40979111 418.49609375 286.25390625 C465.9941937 350.78596553 476.11065401 431.07286586 488.68505859 507.92236328 C495.02273115 546.62861234 501.69200959 582.33003881 528.61328125 612.375 C529.80186111 613.74906665 530.98951713 615.12393362 532.17578125 616.5 C534.90227234 619.60390513 537.69416224 622.64444258 540.48828125 625.6875 C544.63573383 630.23024685 548.5456082 634.91619962 552.40625 639.703125 C554.52951463 642.2735905 556.73139974 644.73419363 558.98828125 647.1875 C564.55209205 653.31058468 569.58292019 659.81351221 574.61328125 666.375 C575.09700195 667.00180664 575.58072266 667.62861328 576.07910156 668.27441406 C584.0792313 678.66138119 591.51369162 689.35424877 598.61328125 700.375 C599.09716309 701.12040039 599.58104492 701.86580078 600.07958984 702.63378906 C614.30950695 724.67986986 627.02785502 750.44115902 622.24560547 777.45166016 C620.1295371 786.6136145 615.45413115 793.10820744 608.61328125 799.375 C608.0821875 799.88546875 607.55109375 800.3959375 607.00390625 800.921875 C595.7453122 810.32338137 577.5725987 811.52311733 563.61328125 810.375 C558.13844902 809.54296234 552.88948336 808.0277862 547.61328125 806.375 C546.73542969 806.10945312 545.85757813 805.84390625 544.953125 805.5703125 C531.90215454 800.99484706 520.81365304 792.22904131 511.08984375 782.6484375 C508.92802852 780.14958313 508.92802852 780.14958313 506.61328125 780.375 C507.38422327 786.97532841 508.41947639 793.51488708 509.50390625 800.0703125 C509.88566539 802.39991633 510.26699591 804.72959043 510.64794922 807.05932617 C510.84660583 808.27349213 511.04526245 809.48765808 511.24993896 810.73861694 C533.65480086 948.13867882 533.65480086 948.13867882 510.44921875 981.984375 C499.99993389 995.59067784 483.57464991 1004.79217775 466.61328125 1007.375 C435.65457296 1009.89358891 411.17666261 998.22305498 383.91821289 985.18652344 C361.67747157 974.55877818 339.80265412 964.69875512 314.91015625 973.0546875 C303.95686214 977.44119628 294.81902918 983.03935814 285.61328125 990.375 C283.5324388 991.98256317 281.44969401 993.58721696 279.36328125 995.1875 C278.26813709 996.02852595 277.17308701 996.86967442 276.078125 997.7109375 C275.51593262 998.14245117 274.95374023 998.57396484 274.37451172 999.01855469 C273.17060168 999.94576902 271.96921316 1000.87626412 270.77001953 1001.80957031 C235.4461907 1029.27459504 197.79765394 1044.73561139 152.44921875 1039.90625 C135.48544969 1037.61607705 118.95296751 1031.83047452 103.61328125 1024.375 C102.9373291 1024.05192871 102.26137695 1023.72885742 101.56494141 1023.39599609 C86.10823387 1015.92603713 72.87650702 1005.74749962 59.42578125 995.1875 C39.67242657 979.72567014 20.69500782 968.1303908 -5.38671875 970.375 C-19.27666115 972.39451438 -31.86504784 979.39618416 -44.38671875 985.375 C-48.92421793 987.53707605 -53.46586699 989.69009829 -58.01242065 991.83306885 C-59.88507725 992.71963373 -61.75234039 993.61682786 -63.61938477 994.51513672 C-86.89503862 1005.52901312 -114.04671865 1012.75863187 -139.38671875 1004.375 C-156.20124525 997.60817836 -170.65266612 984.71389697 -177.859375 967.94921875 C-194.1871356 924.39265622 -180.11528465 867.31469844 -173.32421875 822.875 C-173.15863464 821.78552063 -172.99305054 820.69604126 -172.82244873 819.57354736 C-170.75822409 806.07287916 -168.36651417 792.70457209 -165.38671875 779.375 C-167.05238892 780.30856323 -167.05238892 780.30856323 -168.75170898 781.26098633 C-169.3763353 781.61107254 -170.00096161 781.96115875 -170.64451599 782.32185364 C-172.85667919 783.65908698 -174.6052814 785.25642584 -176.44921875 787.0625 C-192.31935758 801.48502482 -213.59296731 811.22331822 -235.234375 810.59375 C-249.85355413 809.57928404 -263.4438353 805.45258108 -273.35546875 794.125 C-282.18999164 782.44546126 -284.06732519 769.62410215 -282.38671875 755.375 C-276.29709592 719.88819084 -251.18896133 686.17351189 -228.38671875 659.375 C-227.92555664 658.83037109 -227.46439453 658.28574219 -226.98925781 657.72460938 C-221.22696128 650.92382479 -215.38790744 644.20395844 -209.3984375 637.6015625 C-206.96222523 634.90517222 -204.57612662 632.1676602 -202.19140625 629.42578125 C-200.15713734 627.11411203 -198.08449565 624.8396857 -196.01171875 622.5625 C-191.28437022 617.30722422 -186.74954 611.9370453 -182.38671875 606.375 C-181.57074219 605.33859375 -180.75476563 604.3021875 -179.9140625 603.234375 C-172.86321667 593.99524148 -167.86040735 584.07557948 -163.38671875 573.375 C-163.10344727 572.70678223 -162.82017578 572.03856445 -162.52832031 571.35009766 C-151.09440291 543.50024074 -148.92832272 510.84290166 -144.05476379 481.2960434 C-139.92128855 456.23673973 -135.71284274 431.21453399 -130.38671875 406.375 C-130.02151123 404.65966064 -130.02151123 404.65966064 -129.64892578 402.90966797 C-124.23110988 378.03333853 -115.73838192 353.17272687 -104.38671875 330.375 C-103.9695459 329.52969727 -103.55237305 328.68439453 -103.12255859 327.81347656 C-94.31386771 310.10471157 -84.36099128 293.21476888 -71.70605469 277.97070312 C-70.43857861 276.43772317 -69.19717986 274.88329528 -67.95703125 273.328125 C-63.63357037 268.02144716 -59.14036509 263.0826214 -54.24609375 258.2890625 C-53.334646 257.39590332 -52.42319824 256.50274414 -51.48413086 255.58251953 C-49.64810079 253.79751265 -47.80014164 252.02468289 -45.93969727 250.26513672 C-45.09334717 249.4454541 -44.24699707 248.62577148 -43.375 247.78125 C-42.60712158 247.05228516 -41.83924316 246.32332031 -41.0480957 245.57226562 C-39.177089 243.47585987 -39.177089 243.47585987 -39.04736328 240.72998047 C-39.50647368 237.54395249 -40.76528985 236.35687355 -42.94921875 234 C-82.90816052 187.25557755 -112.24351084 118.51454115 -108.38671875 56.375 C-105.83922053 34.4333771 -95.12885296 13.06188031 -77.69140625 -0.76171875 C-54.3836701 -16.42478925 -23.13652079 -15.75252479 0 0 Z M-71.63671875 22.375 C-85.86514333 39.75880416 -87.87549166 62.35179063 -86.18457031 83.95800781 C-84.82168557 97.55085451 -81.52626069 110.3903043 -77.38671875 123.375 C-77.02416992 124.56198486 -77.02416992 124.56198486 -76.65429688 125.77294922 C-69.04821086 150.55456687 -56.49334849 173.73916908 -42.38671875 195.375 C-41.89042969 196.13619141 -41.39414062 196.89738281 -40.8828125 197.68164062 C-35.99825675 205.10164016 -30.81304491 212.27964231 -25.38671875 219.3125 C-24.92950439 219.91070557 -24.47229004 220.50891113 -24.0012207 221.12524414 C-21.30117554 224.55162319 -21.30117554 224.55162319 -17.38671875 226.375 C-14.87121643 224.89825217 -12.60384048 223.40269016 -10.26171875 221.6875 C-9.61589844 221.23955078 -8.97007812 220.79160156 -8.3046875 220.33007812 C-7.68980469 219.88728516 -7.07492187 219.44449219 -6.44140625 218.98828125 C-5.87921387 218.58391846 -5.31702148 218.17955566 -4.73779297 217.76293945 C-3.00218274 215.97997159 -2.59840302 214.8494057 -2.38671875 212.375 C-3.1491232 210.4314947 -3.1491232 210.4314947 -4.4921875 208.56640625 C-4.97518311 207.83035156 -5.45817871 207.09429687 -5.95581055 206.3359375 C-6.48988525 205.54445312 -7.02395996 204.75296875 -7.57421875 203.9375 C-8.69238975 202.22238573 -9.80685346 200.50484987 -10.91796875 198.78515625 C-11.49417969 197.8945752 -12.07039063 197.00399414 -12.6640625 196.08642578 C-31.59642606 166.28727191 -50.44208477 129.63228613 -50.63671875 93.625 C-50.65734375 92.6865625 -50.67796875 91.748125 -50.69921875 90.78125 C-50.75149184 81.31982131 -48.98507111 72.48853903 -42.38671875 65.375 C-38.07792139 61.68174512 -32.90220683 61.24830426 -27.38671875 61.375 C-18.06281105 63.12429416 -10.99641457 70.02269454 -5.453125 77.3125 C3.09434187 89.98020137 8.60283922 104.0150418 13.61328125 118.375 C13.90944336 119.21562988 14.20560547 120.05625977 14.51074219 120.92236328 C22.01078742 142.49021911 27.58023358 165.23921397 31.3347168 187.76611328 C31.67115806 189.65395752 32.13071105 191.51912431 32.61328125 193.375 C34.09828125 194.365 34.09828125 194.365 35.61328125 195.375 C38.13344314 194.55372371 40.35444585 193.67736443 42.73828125 192.5625 C43.38410156 192.27568359 44.02992188 191.98886719 44.6953125 191.69335938 C47.88025231 190.38816648 47.88025231 190.38816648 50.61328125 188.375 C50.57870569 185.86340091 50.47504314 183.39500601 50.3125 180.890625 C50.26461838 180.12752014 50.21673676 179.36441528 50.16740417 178.57818604 C49.60929003 170.37723505 48.58477101 162.25987135 47.42578125 154.125 C47.31723816 153.35385864 47.20869507 152.58271729 47.09686279 151.78820801 C42.97433713 122.71214108 37.71682427 92.89937946 24.61328125 66.375 C24.28634277 65.69421387 23.9594043 65.01342773 23.62255859 64.31201172 C13.45026241 43.26737999 -1.70114666 21.02602211 -24.63671875 13 C-41.16970917 8.01453639 -59.11018059 9.41401543 -71.63671875 22.375 Z M334.1171875 36.203125 C303.18632137 74.61337373 287.55069443 139.3312689 289.61328125 188.375 C295.27835136 191.46400201 300.1218556 193.95164615 306.61328125 194.375 C308.45771627 187.263146 310.10233091 180.14188678 311.55224609 172.93969727 C329.28607625 85.6400273 329.28607625 85.6400273 358.61328125 65.375 C363.36078209 62.38201034 368.02612851 61.18624484 373.61328125 61.375 C376.48240177 62.11220458 378.88789482 63.15327505 381.61328125 64.375 C383.09828125 64.87 383.09828125 64.87 384.61328125 65.375 C385.61328125 67 385.61328125 67 386.61328125 69.375 C387.12890625 70.509375 387.64453125 71.64375 388.17578125 72.8125 C397.90762753 96.93055384 386.02847153 128.88749193 376.515625 151.390625 C367.71553913 171.69760886 357.24049102 191.82436177 344.16796875 209.73046875 C342.39100515 212.15584239 342.39100515 212.15584239 342.81860352 214.37915039 C343.7692289 216.76666576 344.66900431 217.51225183 346.7734375 218.953125 C347.40185547 219.39140625 348.03027344 219.8296875 348.67773438 220.28125 C349.33708984 220.7246875 349.99644531 221.168125 350.67578125 221.625 C351.33900391 222.08390625 352.00222656 222.5428125 352.68554688 223.015625 C354.32130432 224.14535676 355.96642359 225.26151173 357.61328125 226.375 C380.26273802 217.04281848 401.46773816 166.16685089 410.26171875 145.2265625 C412.51560483 139.65768245 414.60666304 134.03719606 416.61328125 128.375 C417.00700928 127.28034424 417.00700928 127.28034424 417.40869141 126.16357422 C427.00426969 99.09796129 432.8954771 62.81203293 420.828125 35.671875 C414.94856589 24.55553817 407.31440687 15.89341958 395.109375 12.05078125 C370.9755306 5.51689223 349.75462611 18.48558892 334.1171875 36.203125 Z M-44.38671875 278.375 C-47.55661237 281.92226191 -50.49971299 285.59462113 -53.38671875 289.375 C-53.8672168 290.00083984 -54.34771484 290.62667969 -54.84277344 291.27148438 C-63.3278228 302.40513792 -70.49437007 314.02540985 -77.22363281 326.29150391 C-78.17987516 328.00447036 -79.19374993 329.68513786 -80.22265625 331.35546875 C-81.55318005 333.27529407 -81.55318005 333.27529407 -81.38671875 335.375 C-77.75782269 334.79437663 -76.10693535 333.419726 -73.51171875 330.875 C-47.71048324 307.30818522 -8.51231519 298.00299717 25.61328125 299.375 C62.46022779 301.17550461 94.61889847 316.42793776 126.52099609 333.61572266 C144.93163384 343.51379119 164.55924373 351.39826171 185.61328125 345.375 C202.84732305 340.14904994 218.48771975 331.55220672 234.17578125 322.8515625 C252.96008409 312.49631288 272.66098249 305.82101492 293.61328125 301.375 C294.84820313 301.10816406 296.083125 300.84132813 297.35546875 300.56640625 C328.43447021 295.0572923 362.53646262 301.54187676 390.61328125 315.375 C391.60457031 315.85710937 392.59585937 316.33921875 393.6171875 316.8359375 C402.23792882 321.27506745 409.88931358 327.14349362 417.23828125 333.4375 C419.36072793 335.58570891 419.36072793 335.58570891 421.61328125 335.375 C420.07277736 329.94861832 417.56406733 325.3981067 414.73828125 320.5625 C414.25359375 319.73153809 413.76890625 318.90057617 413.26953125 318.04443359 C405.26963262 304.53947652 396.0612654 292.07513599 385.61328125 280.375 C384.90220215 279.5713501 384.90220215 279.5713501 384.17675781 278.75146484 C361.84320907 253.60570906 334.51874389 233.69363345 304.61328125 218.375 C303.9490918 218.03065918 303.28490234 217.68631836 302.60058594 217.33154297 C212.25681244 171.00990678 92.07203035 177.8399747 -44.38671875 278.375 Z M7.61328125 374.375 C6.02580078 374.91833984 6.02580078 374.91833984 4.40625 375.47265625 C-17.36240741 383.71624282 -33.9995764 401.40264593 -43.66015625 422.2265625 C-53.08375027 443.9222692 -51.75769489 467.65696746 -43.38671875 489.375 C-33.34162523 511.97646041 -14.91736838 527.3431056 7.61328125 536.375 C27.71075675 543.15727461 50.77401024 542.61948979 70.02905273 533.5378418 C73.28277238 531.91765177 76.45971371 530.18138562 79.61328125 528.375 C80.4640625 527.89160156 81.31484375 527.40820312 82.19140625 526.91015625 C101.046842 515.21029054 113.85436055 496.56041686 119.27734375 475.2109375 C120.7616533 468.45589389 121.11453705 461.96257152 121.05078125 455.0625 C121.04175781 453.88260498 121.03273438 452.70270996 121.0234375 451.48706055 C120.58346676 429.22729103 111.68488723 409.92799374 96.42578125 393.75 C87.49667452 385.18847228 77.14141677 378.82659224 65.61328125 374.375 C64.55625 373.96121094 63.49921875 373.54742187 62.41015625 373.12109375 C45.29106601 367.51244204 24.516697 368.38714657 7.61328125 374.375 Z M238.4921875 399.640625 C224.30453319 416.34499772 217.15415785 438.35178647 218.41796875 460.21044922 C220.6674396 485.14020986 231.51551114 506.16968674 250.61328125 522.375 C269.50726534 537.25151505 292.97412708 542.71722688 316.7109375 540.14794922 C339.32029221 536.85752208 359.55907871 524.1276769 373.61328125 506.375 C387.90528793 486.77584512 392.20128711 463.66214698 389.296875 439.77246094 C387.77926801 431.17146018 384.69106913 423.07495701 380.61328125 415.375 C380.11054687 414.40046875 379.6078125 413.4259375 379.08984375 412.421875 C368.42115327 392.887653 350.62486549 379.68550408 329.61328125 373 C296.0044993 363.14028081 261.96747509 374.56573218 238.4921875 399.640625 Z M-124.38671875 490.375 C-125.43343907 497.13376153 -126.46568428 503.89418737 -127.46484375 510.66015625 C-136.12229237 568.56054998 -151.85252982 607.6183235 -191.75390625 650.53125 C-195.04229427 654.08309938 -198.23217681 657.70449778 -201.38671875 661.375 C-202.27589416 662.39856566 -203.16523192 663.4219903 -204.0546875 664.4453125 C-245.51433289 710.94871464 -245.51433289 710.94871464 -261.76171875 768.9453125 C-260.84209006 774.90374003 -258.39131218 778.86386818 -253.76171875 782.6875 C-244.80594684 788.71826751 -234.95535726 789.458154 -224.38671875 788.375 C-208.65233912 784.99985328 -195.2141385 775.99475777 -183.38671875 765.375 C-182.36384766 764.45847656 -182.36384766 764.45847656 -181.3203125 763.5234375 C-175.45624154 757.95553174 -170.67607455 751.51198777 -165.75048828 745.12792969 C-163.66675407 742.44958891 -161.53162539 739.81719041 -159.38671875 737.1875 C-158.68546875 736.32769531 -157.98421875 735.46789062 -157.26171875 734.58203125 C-156.64296875 733.85371094 -156.02421875 733.12539063 -155.38671875 732.375 C-154.89042969 731.78976562 -154.39414063 731.20453125 -153.8828125 730.6015625 C-151.62547134 728.75089638 -149.24136063 728.96039427 -146.421875 728.87890625 C-143.46066315 729.60073716 -142.30851636 731.04636159 -140.38671875 733.375 C-138.29855253 743.48263586 -141.55061401 755.49148948 -143.16646194 765.51216888 C-143.68994306 768.75973178 -144.20077748 772.00908422 -144.70883179 775.25909424 C-145.7987418 782.21616397 -146.90448337 789.17066999 -148.01171875 796.125 C-152.31706979 823.19201916 -156.5365413 850.24342689 -159.84765625 877.453125 C-159.97274189 878.47795738 -160.09782753 879.50278976 -160.22670364 880.55867767 C-167.08030087 927.75331062 -167.08030087 927.75331062 -151.421875 970.99609375 C-142.6371998 980.69686171 -130.25809735 985.67545349 -117.41015625 986.5859375 C-93.02272612 987.35731607 -69.67469257 975.67123858 -48.76171875 964.25 C-25.24779179 951.47352123 1.31022857 944.95820803 27.61328125 952.375 C32.77194012 954.02918363 37.69224933 956.11882723 42.61328125 958.375 C43.50917969 958.78105469 44.40507812 959.18710937 45.328125 959.60546875 C58.05849193 965.9804599 69.36768492 975.67553818 80.36328125 984.625 C101.09255297 1001.42228642 124.14345735 1013.81010481 150.61328125 1018.375 C152.19302734 1018.65150391 152.19302734 1018.65150391 153.8046875 1018.93359375 C195.24101794 1023.7359582 228.86221842 1007.97785402 260.67578125 982.875 C261.81289084 981.97314883 262.94960742 981.0708019 264.0859375 980.16796875 C280.32996605 967.27813735 295.50810196 957.13672646 315.61328125 951.375 C316.96679688 950.9728125 316.96679688 950.9728125 318.34765625 950.5625 C344.81448427 943.99142546 372.15859875 955.6678066 395.30078125 967.375 C420.58562661 980.07885077 445.91729926 991.95633433 474.61328125 983.375 C486.77887115 978.3000054 494.07428608 969.39314709 499.36328125 957.5625 C515.56245447 915.84051367 497.06953206 853.1307637 490.04296875 810.421875 C489.8064519 808.98203688 489.8064519 808.98203688 489.56515694 807.51311111 C487.96653705 797.78528601 486.35788947 788.05932378 484.71397018 778.33904266 C484.09287835 774.65630924 483.47993666 770.97224577 482.86842728 767.28791046 C482.58047116 765.56581208 482.28873215 763.8443411 481.99283981 762.12358856 C478.15656973 739.80263691 478.15656973 739.80263691 479.61328125 733.375 C482.53334293 730.44559057 483.98270115 729.46508287 488.11328125 728.875 C492.33300513 729.4778177 493.6885391 730.29632406 496.61328125 733.375 C497.78858886 735.18693256 498.87428751 737.04276377 499.97265625 738.90234375 C503.29979159 743.91681201 507.39005349 748.36468506 511.33544922 752.89746094 C512.3922238 754.11939441 513.42928558 755.3583456 514.4609375 756.6015625 C528.18656158 772.99137406 546.80689633 787.0041744 568.61328125 789.375 C578.77655731 789.86677142 588.43972697 787.94772175 596.21875 780.92578125 C600.48189272 776.16256314 602.05669594 771.17063827 601.86328125 764.82421875 C600.80866092 754.49223516 597.74138178 744.85476548 593.61328125 735.375 C593.17886719 734.35792969 592.74445312 733.34085938 592.296875 732.29296875 C579.45887919 704.57228328 558.10088339 678.93108579 537.55078125 656.4921875 C535.72720918 654.49949382 533.9457081 652.47783234 532.17578125 650.4375 C529.41543584 647.26278403 526.58535567 644.15962564 523.73828125 641.0625 C519.54893552 636.47265537 515.58295014 631.74666972 511.6875 626.90625 C509.93028314 624.76184976 508.11774669 622.72321554 506.23828125 620.6875 C474.97049566 585.05676758 471.12150643 535.29975153 464.61328125 490.375 C461.54190952 491.65706134 461.54190952 491.65706134 459.65942383 494.26000977 C459.33687622 495.40167603 459.33687622 495.40167603 459.0078125 496.56640625 C458.75161133 497.42032959 458.49541016 498.27425293 458.23144531 499.15405273 C457.96557617 500.07259033 457.69970703 500.99112793 457.42578125 501.9375 C452.32515436 518.22529791 444.7005296 531.45837623 433.61328125 544.375 C432.83855469 545.29023437 432.06382812 546.20546875 431.265625 547.1484375 C407.03643334 574.92440677 369.84862452 594.704929 332.8125 597.24609375 C286.25475752 599.12204674 247.02329791 583.35982804 209.73046875 555.92529297 C188.45625014 540.05174946 188.45625014 540.05174946 162.61328125 537.375 C149.38756716 540.05564809 137.91648791 550.11589052 127.14868164 557.78222656 C119.46403755 563.23355612 111.60946429 568.39296065 103.61328125 573.375 C103.0198291 573.74608887 102.42637695 574.11717773 101.81494141 574.49951172 C66.96748586 596.03958897 26.28331892 602.25660404 -13.62890625 593.49609375 C-51.78338569 583.85664281 -85.1165665 560.64369967 -106.38671875 527.375 C-107.03253906 526.37597656 -107.67835938 525.37695312 -108.34375 524.34765625 C-114.31040636 514.57055395 -117.88800363 504.24314689 -121.38671875 493.375 C-121.71671875 492.385 -122.04671875 491.395 -122.38671875 490.375 C-123.04671875 490.375 -123.70671875 490.375 -124.38671875 490.375 Z " fill="#030303" transform="translate(342.38671875,30.625)"/>
<path d="M0 0 C7.67143779 6.70190379 14.35634698 14.02824506 20.47265625 22.16015625 C20.86453125 22.67030273 21.25640625 23.18044922 21.66015625 23.70605469 C44.31623469 53.31825721 49.02635192 87.5664594 44.45288086 124.12939453 C39.75438239 156.6715537 20.65981228 187.71836367 -5.4597168 207.49658203 C-28.76245107 224.71290636 -55.6634814 234.64037058 -84.71484375 234.47265625 C-85.40287079 234.47016876 -86.09089783 234.46768127 -86.79977417 234.46511841 C-97.04956244 234.40778214 -106.60685095 233.958503 -116.52734375 231.16015625 C-117.70441895 230.85343994 -117.70441895 230.85343994 -118.90527344 230.54052734 C-145.01495647 223.65527067 -167.50295299 209.81371218 -188.44750977 193.15722656 C-207.22461619 178.25143955 -222.4936591 172.65343226 -246.52734375 174.16015625 C-251.14666006 174.7856251 -255.29186246 176.22445635 -259.52734375 178.16015625 C-260.42710937 178.56105469 -261.326875 178.96195313 -262.25390625 179.375 C-269.04844908 182.7526906 -274.79211204 187.37518924 -280.671875 192.1015625 C-316.82036055 221.02222343 -355.05813176 238.53683611 -402.21484375 233.47265625 C-436.0980732 229.18485274 -468.35929682 210.5312439 -489.359375 183.640625 C-511.07516613 154.5421175 -520.32393809 118.91306096 -515.83984375 82.8515625 C-514.14337436 71.40648639 -511.31234303 60.69259216 -506.52734375 50.16015625 C-506.2334375 49.50499023 -505.93953125 48.84982422 -505.63671875 48.17480469 C-496.52556777 28.18625206 -484.18673543 11.41072299 -466.52734375 -1.83984375 C-465.53089844 -2.59007812 -464.53445313 -3.3403125 -463.5078125 -4.11328125 C-452.66571133 -11.94740121 -441.12938452 -17.83690729 -428.46484375 -22.15234375 C-427.79428955 -22.38268311 -427.12373535 -22.61302246 -426.43286133 -22.8503418 C-414.14246788 -26.80865903 -402.02583763 -28.40115368 -389.15234375 -28.33984375 C-388.12451782 -28.33819717 -388.12451782 -28.33819717 -387.07592773 -28.33651733 C-373.49078797 -28.27471319 -360.67515357 -26.31419935 -347.52734375 -22.83984375 C-346.77646484 -22.6476123 -346.02558594 -22.45538086 -345.25195312 -22.25732422 C-321.46798636 -16.02155599 -299.83358855 -3.56459542 -278.71484375 8.66015625 C-258.79569279 20.06992262 -236.69178424 25.24764635 -213.8425293 19.97412109 C-202.26303846 16.71328679 -191.85117849 10.15776144 -181.52734375 4.16015625 C-156.84595979 -10.1115394 -156.84595979 -10.1115394 -145.52734375 -14.83984375 C-144.75487305 -15.16436523 -143.98240234 -15.48888672 -143.18652344 -15.82324219 C-95.62692584 -35.52412567 -41.06452869 -33.77573754 0 0 Z M-397.52734375 29.16015625 C-399.11482422 29.70349609 -399.11482422 29.70349609 -400.734375 30.2578125 C-422.50303241 38.50139907 -439.1402014 56.18780218 -448.80078125 77.01171875 C-458.22437527 98.70742545 -456.89831989 122.44212371 -448.52734375 144.16015625 C-438.48225023 166.76161666 -420.05799338 182.12826185 -397.52734375 191.16015625 C-377.42986825 197.94243086 -354.36661476 197.40464604 -335.11157227 188.32299805 C-331.85785262 186.70280802 -328.68091129 184.96654187 -325.52734375 183.16015625 C-324.6765625 182.67675781 -323.82578125 182.19335938 -322.94921875 181.6953125 C-304.093783 169.99544679 -291.28626445 151.34557311 -285.86328125 129.99609375 C-284.3789717 123.24105014 -284.02608795 116.74772777 -284.08984375 109.84765625 C-284.09886719 108.66776123 -284.10789062 107.48786621 -284.1171875 106.2722168 C-284.55715824 84.01244728 -293.45573777 64.71314999 -308.71484375 48.53515625 C-317.64395048 39.97362853 -327.99920823 33.61174849 -339.52734375 29.16015625 C-340.584375 28.74636719 -341.64140625 28.33257812 -342.73046875 27.90625 C-359.84955899 22.29759829 -380.623928 23.17230282 -397.52734375 29.16015625 Z M-166.6484375 54.42578125 C-180.83609181 71.13015397 -187.98646715 93.13694272 -186.72265625 114.99560547 C-184.4731854 139.92536611 -173.62511386 160.95484299 -154.52734375 177.16015625 C-135.63335966 192.0366713 -112.16649792 197.50238313 -88.4296875 194.93310547 C-65.82033279 191.64267833 -45.58154629 178.91283315 -31.52734375 161.16015625 C-17.23533707 141.56100137 -12.93933789 118.44730323 -15.84375 94.55761719 C-17.36135699 85.95661643 -20.44955587 77.86011326 -24.52734375 70.16015625 C-25.03007813 69.185625 -25.5328125 68.21109375 -26.05078125 67.20703125 C-36.71947173 47.67280925 -54.51575951 34.47066033 -75.52734375 27.78515625 C-109.1361257 17.92543706 -143.17314991 29.35088843 -166.6484375 54.42578125 Z " fill="#272828" transform="translate(747.52734375,375.83984375)"/>
<path d="M0 0 C3.62274457 2.75289048 6.83139927 5.74021652 10 9 C10.63421875 9.61359375 11.2684375 10.2271875 11.921875 10.859375 C23.80396339 23.16206829 27.5144085 39.56687278 27.42211914 56.13647461 C26.95180543 73.33453637 20.04978011 86.90749018 8 99 C7.45859375 99.56460938 6.9171875 100.12921875 6.359375 100.7109375 C-5.11470834 111.6634716 -21.09104348 115.50129631 -36.44140625 115.42431641 C-44.13733412 115.2090962 -50.79166228 113.81459579 -58 111 C-59.31484375 110.49146484 -59.31484375 110.49146484 -60.65625 109.97265625 C-76.43463619 102.95726619 -86.76779001 89.67662796 -93.02734375 73.94921875 C-98.31771499 57.90813326 -97.86444484 40.48410215 -91 25 C-82.53066892 8.46063632 -69.413873 -1.9851176 -52 -8 C-33.93856717 -13.28717481 -15.90914962 -9.64247404 0 0 Z " fill="#010101" transform="translate(422,434)"/>
<path d="M0 0 C11.63501261 9.7057883 20.49336712 24.01082683 22.53515625 39.15625 C22.66792969 40.05601562 22.80070313 40.95578125 22.9375 41.8828125 C25.05869623 59.94873092 19.56172094 76.88154998 8.53515625 91.15625 C0.16691334 101.67869405 -14.27251675 109.99284965 -27.46484375 112.15625 C-46.27948527 113.99244804 -62.93900206 110.72730099 -78.15234375 99.03125 C-90.94490868 88.02927497 -99.30128845 72.94183388 -100.63330078 56.015625 C-101.53655831 38.47957924 -97.90720452 22.24004231 -86.02734375 8.71875 C-84.52678552 7.17790833 -83.00709405 5.65536043 -81.46484375 4.15625 C-80.85125 3.52203125 -80.23765625 2.8878125 -79.60546875 2.234375 C-57.70586263 -18.91652663 -23.28298262 -17.41611378 0 0 Z " fill="#010101" transform="translate(676.46484375,435.84375)"/>
<path d="M0 0 C2.68324134 2.12933418 5.23503209 4.36192293 7.77636719 6.65966797 C8.44023438 7.22685547 9.10410156 7.79404297 9.78808594 8.37841797 C26.83603693 23.95603286 38.13049806 48.44645008 40.08154297 71.22216797 C40.21187916 74.79030708 40.24419366 78.33932722 40.21386719 81.90966797 C40.20250732 83.80483154 40.20250732 83.80483154 40.19091797 85.73828125 C40.0144043 95.81759805 38.9099586 105.07880228 35.77636719 114.65966797 C35.56737793 115.31032227 35.35838867 115.96097656 35.14306641 116.63134766 C30.36732751 130.97645099 22.29765102 142.86391586 11.77636719 153.65966797 C11.04546875 154.44083984 10.31457031 155.22201172 9.56152344 156.02685547 C-3.18728715 169.33580712 -19.60513976 177.76872984 -37.22363281 182.65966797 C-38.35671875 182.97935547 -39.48980469 183.29904297 -40.65722656 183.62841797 C-66.66421135 189.89096949 -92.83485541 184.83139163 -115.78613281 171.65966797 C-140.75484114 155.51610655 -158.04516341 131.46073345 -165.22363281 102.65966797 C-170.95197844 75.09762803 -165.51782967 48.04052881 -150.22363281 24.65966797 C-147.76416726 21.102138 -145.13613058 17.8551823 -142.22363281 14.65966797 C-141.79211914 14.18577637 -141.36060547 13.71188477 -140.91601562 13.22363281 C-125.08640772 -3.93337089 -105.13813978 -14.94074669 -82.22363281 -19.34033203 C-81.33417969 -19.52853516 -80.44472656 -19.71673828 -79.52832031 -19.91064453 C-51.33769514 -23.57609225 -22.92611011 -17.14469217 0 0 Z M-128.34472656 26.92529297 C-142.53238087 43.62966569 -149.68275622 65.63645444 -148.41894531 87.49511719 C-146.16947447 112.42487783 -135.32140292 133.45435471 -116.22363281 149.65966797 C-97.32964872 164.53618302 -73.86278699 170.00189485 -50.12597656 167.43261719 C-27.51662186 164.14219005 -7.27783536 151.41234487 6.77636719 133.65966797 C21.06837387 114.06051308 25.36437305 90.94681495 22.45996094 67.05712891 C20.94235395 58.45612814 17.85415507 50.35962498 13.77636719 42.65966797 C13.27363281 41.68513672 12.77089844 40.71060547 12.25292969 39.70654297 C1.58423921 20.17232097 -16.21204858 6.97017204 -37.22363281 0.28466797 C-70.83241476 -9.57505123 -104.86943898 1.85040015 -128.34472656 26.92529297 Z " fill="#030303" transform="translate(709.2236328125,403.34033203125)"/>
<path d="M0 0 C1.00297119 0.00563965 2.00594238 0.0112793 3.03930664 0.01708984 C31.0114666 0.4675703 56.53901624 11.69597057 76.71875 30.96875 C96.54216567 51.77109977 105.47383948 78.02936682 105.1484375 106.375 C104.49619986 131.62706473 94.28978522 157.62186794 75.91015625 175.2578125 C74.6080017 176.40783414 73.28637467 177.53622086 71.9453125 178.640625 C70.5649155 179.79006063 69.22733125 180.99227242 67.9296875 182.234375 C47.26016912 201.91236667 19.89271445 206.94207793 -7.61328125 206.59375 C-16.00703854 206.38424651 -23.17353446 205.19847536 -31.0625 202.3125 C-32.08214844 201.961875 -33.10179687 201.61125 -34.15234375 201.25 C-60.18758048 191.39698005 -80.1803788 171.36107569 -91.98095703 146.3671875 C-101.49676313 124.83734113 -104.39897689 96.8565727 -97.0625 74.3125 C-96.73378906 73.28253906 -96.40507812 72.25257813 -96.06640625 71.19140625 C-91.14110701 57.26763642 -84.11327301 44.17296751 -74.0625 33.3125 C-73.37800781 32.54808594 -72.69351562 31.78367187 -71.98828125 30.99609375 C-53.77543273 11.63862998 -26.53190093 -0.15802204 0 0 Z M-26.0625 22.3125 C-27.64998047 22.85583984 -27.64998047 22.85583984 -29.26953125 23.41015625 C-51.03818866 31.65374282 -67.67535765 49.34014593 -77.3359375 70.1640625 C-86.75953152 91.8597692 -85.43347614 115.59446746 -77.0625 137.3125 C-67.01740648 159.91396041 -48.59314963 175.2806056 -26.0625 184.3125 C-5.9650245 191.09477461 17.09822899 190.55698979 36.35327148 181.4753418 C39.60699113 179.85515177 42.78393246 178.11888562 45.9375 176.3125 C46.78828125 175.82910156 47.6390625 175.34570312 48.515625 174.84765625 C67.37106075 163.14779054 80.1785793 144.49791686 85.6015625 123.1484375 C87.08587205 116.39339389 87.4387558 109.90007152 87.375 103 C87.36597656 101.82010498 87.35695313 100.64020996 87.34765625 99.42456055 C86.90768551 77.16479103 78.00910598 57.86549374 62.75 41.6875 C53.82089327 33.12597228 43.46563552 26.76409224 31.9375 22.3125 C30.88046875 21.89871094 29.8234375 21.48492187 28.734375 21.05859375 C11.61528476 15.44994204 -9.15908425 16.32464657 -26.0625 22.3125 Z " fill="#030303" transform="translate(376.0625,382.6875)"/>
<path d="M0 0 C3.95605118 2.71034804 7.16924333 6.08179526 10.375 9.625 C17.52022463 16.08972705 25.8719153 18.33125883 35.30859375 18.21875 C42.21770856 17.6571964 48.65721955 15.47302549 54 11 C54.84098151 9.85369399 55.65238579 8.68526919 56.4375 7.5 C59.09657396 3.53695708 61.61980758 1.92113703 66 0 C70.09941258 -0.66929185 71.63983098 -0.19707361 75.3125 1.8125 C78 4 78 4 79 7 C79.53193645 12.31936451 79.45843293 15.73943166 75.92578125 20.078125 C62.90771226 33.06978817 48.74952311 38.29024795 30.56323242 38.31689453 C22.67735403 38.21241164 16.27078538 37.23146017 9 34 C7.576875 33.38125 7.576875 33.38125 6.125 32.75 C-1.6550981 28.94639648 -10.90067569 22.4603177 -14 14 C-14.32736525 10.18755881 -14.03956997 6.51400459 -11.8359375 3.3046875 C-8.0840758 -0.20641302 -4.93050899 -1.02010531 0 0 Z " fill="#040404" transform="translate(480,611)"/>
<path d="M0 0 C4.94586526 2.29629459 7.30760518 5.31323865 10 10 C11.55417619 14.66252858 11.54448802 18.48753327 9.875 23.125 C7.30678923 27.06292318 4.25774835 29.87112583 0 32 C-5.53042052 32.50502343 -10.41030524 32.73807257 -15.5 30.375 C-20.00205624 26.09804657 -22.77776525 21.94461047 -23.25 15.6875 C-22.93527706 11.04533663 -21.89831305 7.87806438 -18.53515625 4.55078125 C-12.52394432 -0.5785903 -7.73556206 -0.71888077 0 0 Z " fill="#FCFCFC" transform="translate(415,446)"/>
<path d="M0 0 C4.42484878 2.21242439 7.19476657 4.94799616 10 9 C11.35682449 13.07047347 11.52472254 16.74391717 11 21 C8.46759618 25.9710149 5.01138866 29.49430567 0 32 C-5.25575165 32.5238576 -9.64526095 32.66505372 -14.4375 30.3125 C-19.25164749 25.96802544 -21.81773679 22.77951396 -22.25 16.1875 C-22.16357285 11.46857777 -20.96410765 7.98557331 -17.5703125 4.5546875 C-12.08188016 -0.22379836 -7.03513579 -0.79021806 0 0 Z " fill="#FDFDFD" transform="translate(662,446)"/>
</svg>
