<?xml version="1.0" encoding="UTF-8"?>
<svg version="1.1" xmlns="http://www.w3.org/2000/svg" width="600" height="112">
<path d="M0 0 C10.94441678 -0.06962887 21.88878053 -0.1228767 32.83337402 -0.15543652 C37.9158513 -0.17106664 42.99817659 -0.19225642 48.08056641 -0.22631836 C52.98889655 -0.25900646 57.89708085 -0.27687296 62.80551147 -0.28463173 C64.67453302 -0.29015829 66.54354694 -0.30095026 68.4125061 -0.31719017 C71.03819794 -0.3390902 73.66329347 -0.3419617 76.2890625 -0.34057617 C77.05511307 -0.351362 77.82116364 -0.36214783 78.61042786 -0.3732605 C86.82355497 -0.32661927 93.18790545 2.18790545 99 8 C101.99498064 13.06048452 103.11649664 17.27747429 103.16113281 23.10058594 C103.17074036 24.11554138 103.1803479 25.13049683 103.19024658 26.1762085 C103.19449646 27.26790344 103.19874634 28.35959839 103.203125 29.484375 C103.20882507 30.61393616 103.21452515 31.74349731 103.22039795 32.9072876 C103.22984205 35.29788274 103.23637959 37.68849087 103.24023438 40.07910156 C103.24992615 43.72223862 103.2809503 47.36480814 103.3125 51.0078125 C103.31903179 53.33332999 103.32428157 55.65885151 103.328125 57.984375 C103.3404718 59.06797302 103.3528186 60.15157104 103.36553955 61.26800537 C103.34478221 68.375234 102.77765315 74.37557961 98.30859375 80.20703125 C97.69113281 80.73683594 97.07367188 81.26664062 96.4375 81.8125 C95.53837891 82.62654297 95.53837891 82.62654297 94.62109375 83.45703125 C84.83668885 89.21685232 74.03968153 88.39231185 63.0859375 88.29296875 C61.26177318 88.28736442 59.43760431 88.28309828 57.61343384 88.28010559 C52.84258267 88.26872265 48.07201119 88.2393128 43.30126953 88.20599365 C37.56091592 88.16971535 31.82046811 88.15610038 26.08003235 88.13863373 C17.38649449 88.1096708 8.69356873 88.05213824 0 88 C0 70.84 0 53.68 0 36 C4.95 36 9.9 36 15 36 C15 47.88 15 59.76 15 72 C26.60868886 71.96738669 26.60868886 71.96738669 38.21679688 71.88867188 C42.95277893 71.84632853 47.68837243 71.80933675 52.42456055 71.80444336 C56.24395479 71.80015855 60.06247879 71.77168255 63.88160133 71.72656822 C65.33715556 71.71359874 66.79281396 71.70928366 68.24841881 71.71384621 C70.29115619 71.71875696 72.33135454 71.69264852 74.3737793 71.65942383 C75.53515915 71.65276199 76.696539 71.64610016 77.89311218 71.63923645 C81.97910411 70.79855113 83.47401336 69.26664095 86 66 C86.73172144 63.7338726 86.73172144 63.7338726 86.63110352 61.36499023 C86.64990318 60.03352211 86.64990318 60.03352211 86.66908264 58.67515564 C86.65582443 57.72919022 86.64256622 56.78322479 86.62890625 55.80859375 C86.63131821 54.82633316 86.63373016 53.84407257 86.63621521 52.83204651 C86.63523763 50.76014153 86.62186535 48.68821016 86.59692383 46.61645508 C86.5625766 43.44457412 86.57627946 40.27547369 86.59570312 37.10351562 C86.58880561 35.08852981 86.57913408 33.07355117 86.56640625 31.05859375 C86.57136612 30.1106041 86.57632599 29.16261444 86.58143616 28.18589783 C86.54460908 22.93698368 86.54460908 22.93698368 84.08959961 18.43383789 C80.19103136 15.75872499 77.03283938 15.83044127 72.42919922 15.79467773 C71.64862152 15.78477814 70.86804382 15.77487854 70.06381226 15.76467896 C67.47746845 15.73303022 64.89110625 15.70829324 62.3046875 15.68359375 C60.51392126 15.66302713 58.72315992 15.64203074 56.93240356 15.62062073 C52.21421257 15.56536987 47.49597755 15.5159739 42.77770996 15.46777344 C37.96504793 15.4175804 33.15245 15.36188288 28.33984375 15.30664062 C18.89328184 15.19902217 9.44666562 15.09809392 0 15 C0 10.05 0 5.1 0 0 Z " fill="#0231A9" transform="translate(368,15)"/>
<path d="M0 0 C1.07869606 -0.00855011 1.07869606 -0.00855011 2.17918396 -0.01727295 C3.69960069 -0.02669118 5.22003753 -0.03324426 6.74047852 -0.03710938 C9.02723587 -0.0467429 11.31306528 -0.07776493 13.59960938 -0.109375 C27.62036571 -0.21056624 41.13893734 1.67008307 51.8984375 11.44921875 C60.32128617 20.6958179 62.0021913 32.68584993 61.87109375 44.703125 C61.88269531 45.76660156 61.89429687 46.83007812 61.90625 47.92578125 C61.86528724 59.05399638 59.3825703 68.77793073 51.74609375 77.11328125 C38.58512737 89.61089247 19.76635221 88.71631395 2.78515625 88.453125 C-9.59081544 88.08468285 -21.60464138 86.02917089 -31.31640625 77.828125 C-32.03828125 76.961875 -32.76015625 76.095625 -33.50390625 75.203125 C-33.93316406 74.70167969 -34.36242188 74.20023437 -34.8046875 73.68359375 C-43.3022962 62.98011613 -43.26986713 48.12294625 -42.265625 35.1171875 C-40.86525217 24.33856023 -36.67696236 14.8472327 -28.140625 7.890625 C-19.52375432 2.37582777 -10.10693107 0.0631426 0 0 Z M-20.50390625 24.203125 C-26.0139913 32.56735482 -27.19918287 40.33268007 -26.50390625 50.203125 C-25.09390798 57.03539601 -22.31132676 62.86360791 -16.87890625 67.390625 C-8.32571264 71.98400675 -0.09112259 72.67822355 9.49609375 72.578125 C10.60726562 72.58972656 11.7184375 72.60132813 12.86328125 72.61328125 C22.30502532 72.57995745 30.98066442 71.32033492 38.49609375 65.203125 C44.60323078 59.0449534 46.17183679 52.98591517 46.74609375 44.515625 C46.54219658 35.6121151 44.05515289 28.50862972 37.8125 22.08203125 C23.74348329 10.67023186 -7.57006596 11.48088128 -20.50390625 24.203125 Z " fill="#FF0000" transform="translate(53.50390625,14.796875)"/>
<path d="M0 0 C8.78922526 -0.06810916 17.57827172 -0.12300675 26.36770248 -0.15543652 C30.45015108 -0.17101078 34.53240785 -0.1920959 38.61474609 -0.22631836 C42.56348778 -0.25920907 46.51204638 -0.27691475 50.46091461 -0.28463173 C51.95821255 -0.29012248 53.45550188 -0.30084251 54.95272064 -0.31719017 C68.45122054 -0.45854934 81.67736118 0.6416598 92.19140625 9.9375 C102.30747133 20.3702743 103.33879394 33.10467742 103.15234375 47.0546875 C102.70954722 58.52198213 99.19089155 69.65057507 91 78 C81.0560173 85.72449974 68.80370163 88.13843803 56.42211914 88.11352539 C55.16134048 88.11344986 53.90056183 88.11337433 52.60157776 88.11329651 C51.24610351 88.1081915 49.89062967 88.10297553 48.53515625 88.09765625 C47.13268586 88.09578854 45.73021481 88.0943663 44.32774353 88.09336853 C40.6567908 88.08957116 36.98587835 88.07976496 33.31494141 88.06866455 C29.56087804 88.05839031 25.80680789 88.05380309 22.05273438 88.04882812 C14.70178748 88.03867208 7.35095083 88.01909338 0 88 C0 70.84 0 53.68 0 36 C4.95 36 9.9 36 15 36 C15 47.88 15 59.76 15 72 C21.65345082 71.9257313 28.30562367 71.84265481 34.95849609 71.73754883 C37.21819267 71.70444623 39.47796901 71.67636941 41.73779297 71.65356445 C45.0000179 71.61974783 48.26152139 71.56741884 51.5234375 71.51171875 C53.02093033 71.50213387 53.02093033 71.50213387 54.54867554 71.49235535 C64.77164768 71.2816216 73.75702225 69.24297775 81.1875 61.8125 C86.35783267 53.78957 86.93763191 45.38697399 86 36 C84.58224007 29.71290983 82.09410108 25.09742887 76.92578125 21.1796875 C70.05789751 16.9725863 62.68063351 15.91029966 54.71923828 15.79467773 C53.4984256 15.77473251 52.27761292 15.75478729 51.01980591 15.73423767 C49.71647308 15.71752518 48.41314026 15.70081268 47.0703125 15.68359375 C45.71124681 15.66299757 44.35218714 15.64200045 42.99313354 15.62062073 C39.43238226 15.56567487 35.87157583 15.51614553 32.31072998 15.46777344 C28.67064562 15.41735647 25.03064041 15.36177629 21.390625 15.30664062 C14.26048414 15.19939575 7.13026983 15.09835509 0 15 C0 10.05 0 5.1 0 0 Z " fill="#0231A9" transform="translate(131,15)"/>
<path d="M0 0 C5.28 0 10.56 0 16 0 C16.01981934 1.9480957 16.03963867 3.89619141 16.06005859 5.90332031 C16.12784345 12.34152291 16.20461988 18.77956919 16.28752708 25.21759415 C16.33746219 29.12077534 16.38379237 33.02392984 16.421875 36.92724609 C16.45876317 40.69452336 16.50513252 44.46157576 16.55806351 48.22866058 C16.57658873 49.66551517 16.59170363 51.10241793 16.60334396 52.53934479 C16.62023765 54.55269323 16.65040683 56.56591701 16.68115234 58.57910156 C16.69447601 59.72493713 16.70779968 60.87077271 16.7215271 62.05133057 C16.99622277 64.96000404 17.37376762 66.59918301 19 69 C22.4247558 71.28317053 23.66698495 71.25256572 27.69311523 71.25878906 C29.44524574 71.26824554 29.44524574 71.26824554 31.23277283 71.27789307 C32.49529373 71.2738446 33.75781464 71.26979614 35.05859375 71.265625 C36.35442886 71.26753845 37.65026398 71.2694519 38.98536682 71.27142334 C41.72833014 71.27437144 44.47116316 71.27008786 47.21411133 71.26074219 C50.72583891 71.24935895 54.2372604 71.25590171 57.74897671 71.26788712 C61.10220674 71.27686402 64.45535503 71.2705728 67.80859375 71.265625 C69.06909042 71.26967346 70.3295871 71.27372192 71.62828064 71.27789307 C73.38513939 71.26843658 73.38513939 71.26843658 75.17749023 71.25878906 C76.72278664 71.25640228 76.72278664 71.25640228 78.29930115 71.25396729 C81.1394285 70.98688848 82.70485031 70.68944017 85 69 C87.0934263 65.21786678 87.26831064 61.82775056 87.31884766 57.55737305 C87.33871735 56.27642258 87.35858704 54.99547211 87.37905884 53.67570496 C87.39093344 52.28771131 87.4025964 50.89971583 87.4140625 49.51171875 C87.43278405 48.08395785 87.4523582 46.6562079 87.4727478 45.22846985 C87.52397101 41.48194854 87.56364894 37.73539139 87.60089111 33.9887085 C87.64099253 30.16100268 87.69205679 26.33344465 87.7421875 22.50585938 C87.83883059 15.00400018 87.9222582 7.50208324 88 0 C92.95 0 97.9 0 103 0 C103.11320723 9.37982819 103.20483415 18.75919862 103.25906086 28.13955688 C103.28509421 32.49580376 103.32037635 36.85155681 103.37719727 41.20751953 C103.43174256 45.41562719 103.46146759 49.62326151 103.47438622 53.83169556 C103.48358595 55.43282517 103.50155102 57.03393047 103.52865028 58.63485718 C103.79297152 74.90515837 103.79297152 74.90515837 98 81 C96.0078125 82.8046875 96.0078125 82.8046875 94.125 83.875 C93.50882812 84.24367188 92.89265625 84.61234375 92.2578125 84.9921875 C84.59447782 88.41284554 77.40773737 88.30665298 69.10546875 88.30078125 C67.74937308 88.30467613 66.3932786 88.30901241 65.03718567 88.31376648 C62.20207762 88.32120155 59.36709414 88.32095786 56.53198242 88.31567383 C52.92446048 88.30989173 49.31745407 88.32679237 45.7100172 88.3500185 C42.9104776 88.36485638 40.11105917 88.36561386 37.3114872 88.36250877 C35.34306699 88.36326208 33.37466539 88.37705566 31.40629578 88.39118958 C22.70155322 88.34667168 13.35103605 87.95867995 6.5625 81.8125 C5.94503906 81.28269531 5.32757813 80.75289063 4.69140625 80.20703125 C-1.29425015 72.39664819 -0.39188645 63.23465835 -0.29296875 53.90625 C-0.28736527 52.34827078 -0.28309873 50.79028623 -0.28010559 49.2322998 C-0.26871588 45.15516258 -0.23930026 41.07835199 -0.20599365 37.00134277 C-0.17516521 32.83166928 -0.1615731 28.6619424 -0.14648438 24.4921875 C-0.11442402 16.32795927 -0.06170509 8.16405805 0 0 Z " fill="#0231A9" transform="translate(249,15)"/>
<path d="M0 0 C33.99 0 67.98 0 103 0 C103 5.28 103 10.56 103 16 C69.01 16 35.02 16 0 16 C0 10.72 0 5.44 0 0 Z " fill="#0231A9" transform="translate(486,87)"/>
<path d="M0 0 C33.99 0 67.98 0 103 0 C103 5.28 103 10.56 103 16 C69.01 16 35.02 16 0 16 C0 10.72 0 5.44 0 0 Z " fill="#0231A9" transform="translate(486,51)"/>
<path d="M0 0 C33.99 0 67.98 0 103 0 C103 4.95 103 9.9 103 15 C69.01 15 35.02 15 0 15 C0 10.05 0 5.1 0 0 Z " fill="#0231A9" transform="translate(486,15)"/>
</svg>
